<svg id="visual" viewBox="0 0 900 600" width="900" height="600" xmlns="http://www.w3.org/2000/svg" xmlns:xlink="http://www.w3.org/1999/xlink" version="1.1"><path d="M0 37L13.7 42C27.3 47 54.7 57 82 65C109.3 73 136.7 79 163.8 84C191 89 218 93 245.2 88C272.3 83 299.7 69 327 66C354.3 63 381.7 71 409 79C436.3 87 463.7 95 491 96C518.3 97 545.7 91 573 89C600.3 87 627.7 89 654.8 90C682 91 709 91 736.2 93C763.3 95 790.7 99 818 97C845.3 95 872.7 87 886.3 83L900 79L900 0L886.3 0C872.7 0 845.3 0 818 0C790.7 0 763.3 0 736.2 0C709 0 682 0 654.8 0C627.7 0 600.3 0 573 0C545.7 0 518.3 0 491 0C463.7 0 436.3 0 409 0C381.7 0 354.3 0 327 0C299.7 0 272.3 0 245.2 0C218 0 191 0 163.8 0C136.7 0 109.3 0 82 0C54.7 0 27.3 0 13.7 0L0 0Z" fill="#6198ff"></path><path d="M0 259L13.7 251C27.3 243 54.7 227 82 244C109.3 261 136.7 311 163.8 317C191 323 218 285 245.2 249C272.3 213 299.7 179 327 164C354.3 149 381.7 153 409 156C436.3 159 463.7 161 491 172C518.3 183 545.7 203 573 218C600.3 233 627.7 243 654.8 236C682 229 709 205 736.2 202C763.3 199 790.7 217 818 215C845.3 213 872.7 191 886.3 180L900 169L900 77L886.3 81C872.7 85 845.3 93 818 95C790.7 97 763.3 93 736.2 91C709 89 682 89 654.8 88C627.7 87 600.3 85 573 87C545.7 89 518.3 95 491 94C463.7 93 436.3 85 409 77C381.7 69 354.3 61 327 64C299.7 67 272.3 81 245.2 86C218 91 191 87 163.8 82C136.7 77 109.3 71 82 63C54.7 55 27.3 45 13.7 40L0 35Z" fill="#3c80ff"></path><path d="M0 337L13.7 327C27.3 317 54.7 297 82 312C109.3 327 136.7 377 163.8 388C191 399 218 371 245.2 342C272.3 313 299.7 283 327 265C354.3 247 381.7 241 409 243C436.3 245 463.7 255 491 266C518.3 277 545.7 289 573 303C600.3 317 627.7 333 654.8 329C682 325 709 301 736.2 291C763.3 281 790.7 285 818 287C845.3 289 872.7 289 886.3 289L900 289L900 167L886.3 178C872.7 189 845.3 211 818 213C790.7 215 763.3 197 736.2 200C709 203 682 227 654.8 234C627.7 241 600.3 231 573 216C545.7 201 518.3 181 491 170C463.7 159 436.3 157 409 154C381.7 151 354.3 147 327 162C299.7 177 272.3 211 245.2 247C218 283 191 321 163.8 315C136.7 309 109.3 259 82 242C54.7 225 27.3 241 13.7 249L0 257Z" fill="#0066ff"></path><path d="M0 475L13.7 466C27.3 457 54.7 439 82 442C109.3 445 136.7 469 163.8 467C191 465 218 437 245.2 413C272.3 389 299.7 369 327 364C354.3 359 381.7 369 409 378C436.3 387 463.7 395 491 397C518.3 399 545.7 395 573 403C600.3 411 627.7 431 654.8 424C682 417 709 383 736.2 365C763.3 347 790.7 345 818 359C845.3 373 872.7 403 886.3 418L900 433L900 287L886.3 287C872.7 287 845.3 287 818 285C790.7 283 763.3 279 736.2 289C709 299 682 323 654.8 327C627.7 331 600.3 315 573 301C545.7 287 518.3 275 491 264C463.7 253 436.3 243 409 241C381.7 239 354.3 245 327 263C299.7 281 272.3 311 245.2 340C218 369 191 397 163.8 386C136.7 375 109.3 325 82 310C54.7 295 27.3 315 13.7 325L0 335Z" fill="#0059dd"></path><path d="M0 601L13.7 601C27.3 601 54.7 601 82 601C109.3 601 136.7 601 163.8 601C191 601 218 601 245.2 601C272.3 601 299.7 601 327 601C354.3 601 381.7 601 409 601C436.3 601 463.7 601 491 601C518.3 601 545.7 601 573 601C600.3 601 627.7 601 654.8 601C682 601 709 601 736.2 601C763.3 601 790.7 601 818 601C845.3 601 872.7 601 886.3 601L900 601L900 431L886.3 416C872.7 401 845.3 371 818 357C790.7 343 763.3 345 736.2 363C709 381 682 415 654.8 422C627.7 429 600.3 409 573 401C545.7 393 518.3 397 491 395C463.7 393 436.3 385 409 376C381.7 367 354.3 357 327 362C299.7 367 272.3 387 245.2 411C218 435 191 463 163.8 465C136.7 467 109.3 443 82 440C54.7 437 27.3 455 13.7 464L0 473Z" fill="#004cbb"></path></svg>